# xmcd
#
# Track frame offsets: 
#        182
#        16000
#        34445
#        53692
#        70500
#        91042
#        108622
#        123152
#        135500
#        172350
#        194987
#
# Disc length: 2901 seconds
#
# Revision: 1
# Processed by: cddbd v1.5.2PL0 Copyright (c) Steve Scherf et al.
# Submitted via: ExactAudioCopy v0.99pb3
#
DISCID=960b530b
DTITLE=Caravan - All Over You
DYEAR=1992
DGENRE=Blues
TTITLE0=If I Do It All Over Again, I Dont't Over You
TTITLE1=Place Of My Own
TTITLE2=The Love In Your Eyes
TTITLE3=In The Land Of Grey and Pink
TTITLE4=Golf Girl
TTITLE5=Disassociation (Nine Feet Underground)
TTITLE6=Hello Hello
TTITLE7=Asforteri 25
TTITLE8=For Richard
TTITLE9=Memory Lain, Hugh
TTITLE10=Headloss
EXTD=YEAR: 1992
EXTT0=
EXTT1=
EXTT2=
EXTT3=
EXTT4=
EXTT5=
EXTT6=
EXTT7=
EXTT8=
EXTT9=
EXTT10=
PLAYORDER=
